<svg width="188" height="161" viewBox="0 0 188 161" fill="none" xmlns="http://www.w3.org/2000/svg">
<path d="M18.8182 150.616H5.42423C3.27271 150.616 1.51514 148.839 1.51514 146.664V54.0342C1.51514 51.8594 3.27271 50.0828 5.42423 50.0828H18.8182C20.9697 50.0828 22.7273 51.8594 22.7273 54.0342V146.664C22.697 148.839 20.9697 150.616 18.8182 150.616Z" fill="#ACD1FF"/>
<path d="M51.5757 150.616H38.1818C36.0303 150.616 34.2727 148.839 34.2727 146.664V81.8172C34.2727 79.6424 36.0303 77.8657 38.1818 77.8657H51.5757C53.7272 77.8657 55.4848 79.6424 55.4848 81.8172V146.695C55.4545 148.839 53.7272 150.616 51.5757 150.616Z" fill="#C7E0FF"/>
<path d="M84.3333 150.616H70.9091C68.7576 150.616 67 148.839 67 146.664V68.9825C67 66.8076 68.7576 65.031 70.9091 65.031H84.303C86.4545 65.031 88.2121 66.8076 88.2121 68.9825V146.664C88.2121 148.839 86.4848 150.616 84.3333 150.616Z" fill="#ACD1FF"/>
<path d="M117.091 150.616H103.697C101.545 150.616 99.7878 148.839 99.7878 146.664V46.1007C99.7878 43.9258 101.545 42.1492 103.697 42.1492H117.091C119.242 42.1492 121 43.9258 121 46.1007V146.664C120.97 148.839 119.242 150.616 117.091 150.616Z" fill="#C7E0FF"/>
<path d="M149.818 150.616H136.424C134.273 150.616 132.515 148.839 132.515 146.664V68.9825C132.515 66.8076 134.273 65.031 136.424 65.031H149.818C151.97 65.031 153.727 66.8076 153.727 68.9825V146.664C153.727 148.839 151.97 150.616 149.818 150.616Z" fill="#ACD1FF"/>
<path d="M182.576 150.616H169.182C167.03 150.616 165.273 148.839 165.273 146.664V35.6859C165.273 33.511 167.03 31.7344 169.182 31.7344H182.576C184.727 31.7344 186.485 33.511 186.485 35.6859V146.695C186.485 148.839 184.727 150.616 182.576 150.616Z" fill="#C7E0FF"/>
<path d="M12.1213 33.5111C16.2551 33.5111 19.6062 30.1236 19.6062 25.945C19.6062 21.7665 16.2551 18.379 12.1213 18.379C7.98755 18.379 4.63647 21.7665 4.63647 25.945C4.63647 30.1236 7.98755 33.5111 12.1213 33.5111Z" fill="#C7E0FF"/>
<path d="M44.8789 61.2634C49.0127 61.2634 52.3637 57.876 52.3637 53.6974C52.3637 49.5188 49.0127 46.1313 44.8789 46.1313C40.7451 46.1313 37.394 49.5188 37.394 53.6974C37.394 57.876 40.7451 61.2634 44.8789 61.2634Z" fill="#ACD1FF"/>
<path d="M77.6062 48.4593C81.74 48.4593 85.091 45.0719 85.091 40.8933C85.091 36.7147 81.74 33.3273 77.6062 33.3273C73.4724 33.3273 70.1213 36.7147 70.1213 40.8933C70.1213 45.0719 73.4724 48.4593 77.6062 48.4593Z" fill="#C7E0FF"/>
<path d="M110.364 25.8531C114.498 25.8531 117.849 22.4657 117.849 18.2871C117.849 14.1085 114.498 10.7211 110.364 10.7211C106.23 10.7211 102.879 14.1085 102.879 18.2871C102.879 22.4657 106.23 25.8531 110.364 25.8531Z" fill="#ACD1FF"/>
<path d="M143.121 48.4593C147.255 48.4593 150.606 45.0719 150.606 40.8933C150.606 36.7147 147.255 33.3273 143.121 33.3273C138.988 33.3273 135.636 36.7147 135.636 40.8933C135.636 45.0719 138.988 48.4593 143.121 48.4593Z" fill="#C7E0FF"/>
<path d="M175.879 15.132C180.013 15.132 183.364 11.7446 183.364 7.56602C183.364 3.38742 180.013 0 175.879 0C171.745 0 168.394 3.38742 168.394 7.56602C168.394 11.7446 171.745 15.132 175.879 15.132Z" fill="#ACD1FF"/>
<path d="M44.8788 55.2289C44.5152 55.2289 44.1819 55.1064 43.9091 54.8613L11.1515 27.1091C10.5152 26.5577 10.4243 25.6081 10.9697 24.9648C11.5152 24.3216 12.4546 24.2297 13.0909 24.7811L45.1516 51.982L76.9091 39.5455L109.515 17.0312C110.03 16.6637 110.697 16.6637 111.212 17.0312L142.939 38.9329L174.818 6.49396C175.424 5.91196 176.364 5.88133 176.97 6.49396C177.576 7.07596 177.576 8.05617 176.97 8.66881L144.212 41.9654C143.697 42.4862 142.879 42.578 142.273 42.1492L110.364 20.1557L78.4849 42.1492C78.394 42.2105 78.2728 42.2717 78.1819 42.3024L45.4243 55.137C45.2425 55.1983 45.0606 55.2289 44.8788 55.2289Z" fill="#87B0FF"/>
<path d="M105.848 161H1.51515C0.666667 161 0 160.326 0 159.468C0 158.611 0.666667 157.937 1.51515 157.937H105.848C106.697 157.937 107.364 158.611 107.364 159.468C107.364 160.326 106.667 161 105.848 161Z" fill="#87B0FF"/>
<path d="M186.485 161H152.242C151.394 161 150.727 160.326 150.727 159.468C150.727 158.611 151.394 157.937 152.242 157.937H186.455C187.303 157.937 187.97 158.611 187.97 159.468C187.97 160.326 187.333 161 186.485 161Z" fill="#87B0FF"/>
<path d="M138.333 161H119.758C118.909 161 118.242 160.326 118.242 159.468C118.242 158.611 118.909 157.937 119.758 157.937H138.333C139.182 157.937 139.848 158.611 139.848 159.468C139.848 160.326 139.182 161 138.333 161Z" fill="#87B0FF"/>
</svg>
