<svg viewBox="0 0 265 81" fill="none" xmlns="http://www.w3.org/2000/svg">
<g clip-path="url(#clip0)">
<path d="M253.282 5.89573C256.53 5.89573 259.174 8.57092 259.174 11.8578V69.1496C259.174 72.4364 256.53 75.1116 253.282 75.1116H85.3133C91.3582 69.4149 96.7768 60.9398 96.7768 47.7038V11.8578C96.7768 8.57092 99.4205 5.89573 102.669 5.89573H253.282ZM253.282 0H102.661C96.1942 0 90.9431 5.30616 90.9431 11.8578V47.6965C90.9431 61.603 84.1116 69.776 74.7092 75.9076C72.4151 77.4036 73.4784 81 76.2023 81H253.274C259.742 81 264.993 75.6938 264.993 69.1422V11.8578C265 5.30616 259.749 0 253.282 0Z" fill="#ACD1FF"/>
<path d="M64.1344 18.2252C49.6266 5.28403 27.428 6.69163 14.639 21.3646C7.69096 29.3386 4.66123 39.9288 6.31447 50.438C6.59851 52.2435 8.28817 53.4816 10.0652 53.1942C11.8496 52.9068 13.0731 51.2044 12.7891 49.3988C11.4417 40.8574 13.9107 32.2349 19.5623 25.757C29.9552 13.8255 48.0098 12.6758 59.7937 23.1997C65.5036 28.2995 68.912 35.3375 69.3927 43.0315C69.8734 50.7254 67.3608 58.1393 62.3209 63.9171C57.2811 69.6949 50.3258 73.1439 42.7223 73.6229C35.1115 74.1093 27.7921 71.5668 22.0822 66.467C20.7276 65.2584 18.6519 65.391 17.4575 66.7618C16.2631 68.1325 16.3869 70.2329 17.7488 71.4415C24.2089 77.2046 32.3513 80.3146 40.8943 80.3146C41.6371 80.3146 42.3873 80.2925 43.1374 80.2409C52.4815 79.644 61.0464 75.4064 67.2369 68.2947C73.4348 61.1829 76.5228 52.0667 75.9329 42.604C75.3502 33.1561 71.1552 24.4894 64.1344 18.2252Z" fill="#ACD1FF"/>
<path d="M40.9379 23.126C39.1244 23.126 37.6605 24.6073 37.6605 26.4423V44.837C37.6605 44.8886 37.6751 44.9328 37.6751 44.9844C37.6824 45.1023 37.6897 45.2202 37.7115 45.3382C37.7261 45.4413 37.7406 45.5445 37.7698 45.6403C37.7989 45.7435 37.828 45.8467 37.8644 45.9498C37.9009 46.053 37.9373 46.1562 37.9883 46.252C38.032 46.3478 38.0829 46.4362 38.1339 46.5247C38.1922 46.6278 38.2577 46.7237 38.3233 46.8195C38.3524 46.8563 38.3743 46.9005 38.4034 46.9447L49.5391 60.6965C50.1873 61.4925 51.1268 61.9052 52.0736 61.9052C52.8019 61.9052 53.5375 61.662 54.1493 61.1535C55.5476 59.9891 55.7515 57.9034 54.6081 56.4885L44.2152 43.6505V26.4423C44.2152 24.6073 42.7513 23.126 40.9379 23.126Z" fill="#ACD1FF"/>
<path d="M80.7106 14.275L65.6566 1.45919C64.2728 0.280048 62.2044 0.45692 61.0391 1.86453C59.8739 3.26476 60.0487 5.35775 61.4397 6.53689L76.4937 19.3454C77.1055 19.8686 77.8556 20.1266 78.5985 20.1266C79.5307 20.1266 80.463 19.7286 81.1111 18.9474C82.2691 17.5472 82.0943 15.4542 80.7106 14.275Z" fill="#ACD1FF"/>
<path d="M20.8368 1.86363C19.6715 0.463396 17.6031 0.279154 16.2193 1.4583L1.16534 14.2742C-0.218432 15.4533 -0.400508 17.5463 0.764776 18.9465C1.41296 19.7277 2.33791 20.1257 3.27742 20.1257C4.02029 20.1257 4.77044 19.8677 5.38221 19.3445L20.4362 6.536C21.8273 5.35685 22.0021 3.26387 20.8368 1.86363Z" fill="#ACD1FF"/>
<path d="M245.656 30.7315H110.287C106.536 30.7315 103.499 27.6584 103.499 23.863C103.499 20.0676 106.536 16.9944 110.287 16.9944H245.656C249.407 16.9944 252.444 20.0676 252.444 23.863C252.444 27.651 249.407 30.7315 245.656 30.7315Z" fill="#ACD1FF"/>
<path d="M248.023 47.5417H107.92C105.48 47.5417 103.499 45.5371 103.499 43.0683C103.499 40.5995 105.48 38.5949 107.92 38.5949H248.031C250.47 38.5949 252.451 40.5995 252.451 43.0683C252.444 45.5371 250.47 47.5417 248.023 47.5417Z" fill="#C7E0FF"/>
<path d="M226.269 64.0129H107.92C105.48 64.0129 103.499 62.0084 103.499 59.5395C103.499 57.0707 105.48 55.0662 107.92 55.0662H226.269C228.709 55.0662 230.69 57.0707 230.69 59.5395C230.69 62.0084 228.709 64.0129 226.269 64.0129Z" fill="#C7E0FF"/>
</g>
<defs>
<clipPath id="clip0">
<rect width="265" height="81" fill="white"/>
</clipPath>
</defs>
</svg>