<svg viewBox="0 0 443 386" fill="none" xmlns="http://www.w3.org/2000/svg">
<g clip-path="url(#clip0)">
<path d="M204.199 273.903C201.719 273.903 199.469 272.214 198.859 269.706C198.139 266.759 199.949 263.781 202.899 263.062L345.786 228.291C348.746 227.571 351.716 229.38 352.436 232.327C353.156 235.275 351.346 238.252 348.396 238.972L205.509 273.743C205.059 273.853 204.629 273.903 204.199 273.903Z" fill="#BFD5FF"/>
<path d="M206.399 292.158C205.049 292.158 203.819 291.239 203.489 289.87C203.099 288.261 204.089 286.642 205.699 286.253L353.986 250.163C355.596 249.773 357.216 250.762 357.616 252.361C358.006 253.969 357.016 255.588 355.406 255.978L207.109 292.078C206.869 292.138 206.629 292.158 206.399 292.158Z" fill="white"/>
<path d="M210.599 309.393C209.249 309.393 208.019 308.474 207.689 307.105C207.299 305.497 208.289 303.878 209.899 303.488L334.795 273.094C336.405 272.694 338.025 273.693 338.425 275.292C338.815 276.9 337.825 278.519 336.215 278.909L211.309 309.304C211.069 309.364 210.829 309.393 210.599 309.393Z" fill="white"/>
<path d="M152.867 335.032C135.416 335.032 119.535 323.152 115.225 305.487C112.775 295.445 114.395 285.044 119.765 276.211C125.146 267.378 133.646 261.163 143.696 258.726C153.747 256.278 164.157 257.886 172.998 263.262C181.838 268.637 188.058 277.12 190.499 287.172C192.949 297.214 191.339 307.615 185.958 316.448C180.578 325.28 172.088 331.495 162.027 333.933C158.967 334.673 155.887 335.032 152.867 335.032ZM152.927 261.603C150.167 261.603 147.387 261.933 144.646 262.602C126.036 267.129 114.585 285.943 119.115 304.538C123.646 323.132 142.476 334.573 161.087 330.046C170.098 327.848 177.718 322.283 182.548 314.359C187.368 306.436 188.818 297.114 186.618 288.111C184.418 279.109 178.848 271.495 170.918 266.669C165.407 263.322 159.217 261.603 152.927 261.603Z" fill="white"/>
<path d="M166.818 279.009C166.427 277.88 165.207 277.26 164.057 277.62L143.426 284.094C143.146 283.695 142.736 283.395 142.256 283.195L144.737 279.189C144.937 279.249 145.157 279.258 145.377 279.199C146.067 279.029 146.497 278.329 146.327 277.64C146.157 276.95 145.457 276.521 144.767 276.691C144.076 276.86 143.646 277.56 143.816 278.249C143.866 278.459 143.976 278.649 144.106 278.799L141.526 282.965C140.826 282.836 140.036 282.865 139.256 283.135C138.526 283.375 137.896 283.775 137.426 284.254L134.746 283.065C134.766 282.915 134.766 282.756 134.726 282.596C134.556 281.906 133.856 281.477 133.166 281.647C132.476 281.816 132.046 282.516 132.216 283.205C132.386 283.895 133.086 284.324 133.776 284.154C134.046 284.084 134.276 283.935 134.456 283.735L136.966 284.844C136.676 285.293 136.526 285.783 136.506 286.263L132.826 287.422C131.756 287.761 131.106 288.841 131.316 289.95L135.666 312.741C135.896 313.93 137.036 314.719 138.226 314.499L174.158 308.065C174.798 307.955 175.348 307.565 175.678 307.005C176.008 306.446 176.068 305.777 175.858 305.167L166.818 279.009Z" fill="#BFD5FF"/>
<path d="M162.117 283.065C161.777 282.086 160.727 281.557 159.747 281.866L135.736 289.41C134.816 289.7 134.256 290.639 134.436 291.588L137.926 309.853C138.126 310.882 139.106 311.552 140.136 311.372L167.848 306.416C168.398 306.316 168.878 305.986 169.158 305.507C169.438 305.027 169.498 304.448 169.318 303.918L162.117 283.065Z" fill="white"/>
<path d="M165.207 284.624C165.92 284.624 166.497 284.047 166.497 283.335C166.497 282.623 165.92 282.046 165.207 282.046C164.495 282.046 163.917 282.623 163.917 283.335C163.917 284.047 164.495 284.624 165.207 284.624Z" fill="white"/>
<path d="M167.128 289.82C167.84 289.82 168.418 289.243 168.418 288.531C168.418 287.819 167.84 287.242 167.128 287.242C166.415 287.242 165.838 287.819 165.838 288.531C165.838 289.243 166.415 289.82 167.128 289.82Z" fill="white"/>
<path d="M169.058 295.025C169.77 295.025 170.348 294.448 170.348 293.736C170.348 293.025 169.77 292.448 169.058 292.448C168.345 292.448 167.768 293.025 167.768 293.736C167.768 294.448 168.345 295.025 169.058 295.025Z" fill="white"/>
<path d="M183.918 191.901C181.438 191.901 179.188 190.212 178.578 187.704C177.858 184.757 179.668 181.779 182.618 181.06L325.505 146.289C328.455 145.569 331.435 147.378 332.155 150.325C332.875 153.273 331.065 156.25 328.115 156.97L185.228 191.741C184.788 191.851 184.348 191.901 183.918 191.901Z" fill="#BFD5FF"/>
<path d="M186.118 210.156C184.768 210.156 183.538 209.237 183.208 207.868C182.818 206.259 183.808 204.64 185.418 204.251L333.705 168.161C335.315 167.771 336.935 168.76 337.335 170.359C337.725 171.967 336.735 173.586 335.125 173.986L186.838 210.076C186.598 210.136 186.358 210.156 186.118 210.156Z" fill="white"/>
<path d="M190.318 227.391C188.968 227.391 187.738 226.472 187.408 225.103C187.018 223.495 188.008 221.876 189.618 221.486L314.514 191.092C316.124 190.692 317.744 191.691 318.144 193.29C318.534 194.898 317.544 196.517 315.934 196.907L191.038 227.302C190.798 227.362 190.558 227.391 190.318 227.391Z" fill="white"/>
<path d="M132.786 252.97C125.776 252.97 118.875 251.052 112.725 247.315C103.885 241.939 97.6644 233.456 95.2243 223.405C90.174 202.672 102.945 181.689 123.696 176.644C133.746 174.196 144.156 175.804 152.997 181.18C161.837 186.555 168.058 195.048 170.498 205.09C172.948 215.132 171.328 225.533 165.957 234.366C160.577 243.198 152.087 249.413 142.026 251.851C138.966 252.601 135.866 252.97 132.786 252.97ZM132.926 179.531C130.166 179.531 127.396 179.861 124.646 180.53C106.035 185.057 94.5842 203.871 99.1144 222.466C101.315 231.468 106.885 239.082 114.815 243.908C122.745 248.724 132.076 250.173 141.086 247.974C150.107 245.776 157.727 240.211 162.547 232.287C167.368 224.364 168.818 215.042 166.617 206.039C164.417 197.037 158.847 189.423 150.917 184.597C145.407 181.25 139.216 179.531 132.926 179.531Z" fill="white"/>
<path d="M146.817 196.937C146.427 195.808 145.206 195.188 144.056 195.548L123.425 202.023C123.145 201.623 122.735 201.323 122.255 201.123L124.736 197.117C124.936 197.177 125.156 197.187 125.376 197.127C126.066 196.957 126.496 196.257 126.326 195.568C126.156 194.878 125.456 194.449 124.766 194.619C124.076 194.788 123.645 195.488 123.815 196.177C123.866 196.387 123.976 196.577 124.106 196.727L121.525 200.893C120.825 200.764 120.035 200.794 119.255 201.063C118.525 201.303 117.895 201.703 117.425 202.182L114.745 200.993C114.765 200.843 114.765 200.684 114.725 200.524C114.555 199.834 113.855 199.405 113.165 199.575C112.475 199.744 112.045 200.444 112.215 201.133C112.385 201.823 113.085 202.252 113.775 202.082C114.045 202.013 114.275 201.863 114.455 201.663L116.965 202.772C116.675 203.222 116.525 203.711 116.505 204.191L112.825 205.35C111.755 205.689 111.105 206.769 111.315 207.878L115.665 230.669C115.895 231.858 117.035 232.647 118.225 232.427L154.157 225.993C154.797 225.883 155.347 225.493 155.677 224.934C156.007 224.374 156.067 223.705 155.857 223.095L146.817 196.937Z" fill="#94B4FF"/>
<path d="M142.106 200.993C141.766 200.014 140.716 199.485 139.736 199.794L115.725 207.338C114.805 207.628 114.245 208.567 114.425 209.516L117.915 227.781C118.115 228.81 119.095 229.48 120.125 229.3L147.837 224.344C148.387 224.244 148.867 223.914 149.147 223.435C149.427 222.955 149.487 222.376 149.307 221.846L142.106 200.993Z" fill="white"/>
<path d="M145.206 202.562C145.919 202.562 146.497 201.985 146.497 201.273C146.497 200.561 145.919 199.984 145.206 199.984C144.494 199.984 143.916 200.561 143.916 201.273C143.916 201.985 144.494 202.562 145.206 202.562Z" fill="white"/>
<path d="M147.126 207.758C147.839 207.758 148.417 207.181 148.417 206.469C148.417 205.757 147.839 205.18 147.126 205.18C146.414 205.18 145.836 205.757 145.836 206.469C145.836 207.181 146.414 207.758 147.126 207.758Z" fill="white"/>
<path d="M149.047 212.953C149.759 212.953 150.337 212.376 150.337 211.665C150.337 210.953 149.759 210.376 149.047 210.376C148.334 210.376 147.757 210.953 147.757 211.665C147.757 212.376 148.334 212.953 149.047 212.953Z" fill="white"/>
<path d="M163.647 109.899C161.167 109.899 158.917 108.21 158.307 105.702C157.587 102.755 159.397 99.7773 162.347 99.0579L305.234 64.2867C308.184 63.5673 311.164 65.3758 311.884 68.3234C312.604 71.2709 310.794 74.2485 307.844 74.9679L164.957 109.739C164.507 109.849 164.077 109.899 163.647 109.899Z" fill="#BFD5FF"/>
<path d="M165.847 128.164C164.497 128.164 163.267 127.245 162.937 125.876C162.547 124.267 163.537 122.648 165.147 122.249L313.434 86.1586C315.044 85.7689 316.664 86.7581 317.064 88.3567C317.454 89.9654 316.464 91.5841 314.854 91.9738L166.567 128.064C166.317 128.134 166.077 128.164 165.847 128.164Z" fill="white"/>
<path d="M170.048 145.389C168.697 145.389 167.467 144.47 167.137 143.101C166.747 141.493 167.737 139.874 169.348 139.484L294.243 109.09C295.853 108.7 297.473 109.689 297.873 111.288C298.263 112.896 297.273 114.515 295.663 114.905L170.768 145.3C170.518 145.359 170.278 145.389 170.048 145.389Z" fill="white"/>
<path d="M112.785 170.908C105.775 170.908 98.8745 168.99 92.7242 165.253C83.8838 159.877 77.6635 151.395 75.2234 141.343C70.1732 120.61 82.9438 99.6274 103.695 94.5816C124.446 89.5258 145.447 102.295 150.497 123.028C155.547 143.761 142.776 164.743 122.026 169.789C118.955 170.539 115.855 170.908 112.785 170.908ZM112.855 97.4792C110.145 97.4792 107.385 97.7989 104.635 98.4684C86.0239 102.995 74.5734 121.809 79.1036 140.404C81.3037 149.406 86.8739 157.02 94.8043 161.846C102.735 166.662 112.065 168.111 121.075 165.912C139.686 161.386 151.137 142.572 146.607 123.977C142.746 108.13 128.496 97.4792 112.855 97.4792Z" fill="white"/>
<path d="M126.806 114.865C126.416 113.736 125.196 113.116 124.046 113.476L103.415 119.951C103.135 119.551 102.725 119.251 102.245 119.051L104.725 115.045C104.925 115.105 105.145 115.115 105.365 115.055C106.055 114.885 106.485 114.185 106.315 113.496C106.145 112.806 105.445 112.377 104.755 112.547C104.065 112.717 103.635 113.416 103.805 114.105C103.855 114.315 103.965 114.505 104.095 114.655L101.515 118.822C100.815 118.692 100.025 118.722 99.2445 118.991C98.5145 119.231 97.8845 119.631 97.4145 120.11L94.7343 118.921C94.7544 118.772 94.7543 118.612 94.7143 118.452C94.5443 117.762 93.8443 117.333 93.1543 117.503C92.4642 117.672 92.0342 118.372 92.2042 119.061C92.3742 119.751 93.0743 120.18 93.7643 120.011C94.0343 119.941 94.2643 119.791 94.4443 119.591L96.9544 120.7C96.6644 121.15 96.5144 121.639 96.4944 122.119L92.8143 123.278C91.7442 123.618 91.0942 124.697 91.3042 125.806L95.6544 148.597C95.8844 149.786 97.0244 150.575 98.2145 150.355L134.146 143.921C134.786 143.811 135.336 143.421 135.666 142.862C135.996 142.302 136.056 141.633 135.846 141.023L126.806 114.865Z" fill="#94B4FF"/>
<path d="M122.106 118.931C121.766 117.952 120.715 117.423 119.735 117.732L95.7244 125.276C94.8043 125.566 94.2443 126.505 94.4243 127.454L97.9145 145.719C98.1145 146.748 99.0945 147.418 100.125 147.238L127.836 142.282C128.386 142.182 128.866 141.852 129.146 141.373C129.426 140.893 129.486 140.314 129.306 139.784L122.106 118.931Z" fill="white"/>
<path d="M125.196 120.49C125.908 120.49 126.486 119.913 126.486 119.201C126.486 118.489 125.908 117.912 125.196 117.912C124.483 117.912 123.906 118.489 123.906 119.201C123.906 119.913 124.483 120.49 125.196 120.49Z" fill="white"/>
<path d="M127.116 125.686C127.828 125.686 128.406 125.109 128.406 124.397C128.406 123.685 127.828 123.108 127.116 123.108C126.403 123.108 125.826 123.685 125.826 124.397C125.826 125.109 126.403 125.686 127.116 125.686Z" fill="white"/>
<path d="M129.046 130.891C129.758 130.891 130.336 130.314 130.336 129.603C130.336 128.891 129.758 128.314 129.046 128.314C128.333 128.314 127.756 128.891 127.756 129.603C127.756 130.314 128.333 130.891 129.046 130.891Z" fill="white"/>
<path d="M128.176 370.403C121.846 370.403 115.605 368.684 110.045 365.327C101.995 360.471 96.3244 352.778 94.0743 343.655L38.2217 117.792C35.9716 108.67 37.4017 99.2278 42.2619 91.1844C47.1221 83.1411 54.8225 77.4758 63.9529 75.2277L299.934 16.976C309.054 14.7278 318.514 16.1566 326.565 21.0126C334.615 25.8686 340.285 33.5622 342.535 42.6846L398.388 268.547C403.038 287.372 391.498 306.466 372.667 311.112L372.187 309.174L372.667 311.112L136.686 369.364C133.856 370.053 131.006 370.403 128.176 370.403ZM308.424 19.9335C305.914 19.9335 303.384 20.2433 300.884 20.8527L64.903 79.1045C56.8126 81.1028 49.9923 86.1286 45.6821 93.2527C41.3719 100.377 40.1018 108.75 42.1019 116.833L97.9544 342.696C99.9545 350.779 104.985 357.594 112.115 361.9C119.245 366.206 127.626 367.475 135.716 365.477L371.697 307.225C388.398 303.099 398.618 286.183 394.498 269.497L338.645 43.6339C336.645 35.5506 331.615 28.7362 324.485 24.4298C319.564 21.4523 314.034 19.9335 308.424 19.9335Z" fill="white"/>
<path d="M321.765 361.241C324.305 361.63 326.665 359.792 327.075 357.134C327.485 354.476 325.775 352.028 323.235 351.639C320.694 351.249 318.324 353.077 317.914 355.735C317.504 358.393 319.224 360.851 321.765 361.241ZM309.534 359.372C312.074 359.762 314.434 357.923 314.844 355.266C315.254 352.608 313.544 350.16 311.004 349.77C308.464 349.38 306.094 351.209 305.684 353.867C305.274 356.524 306.994 358.982 309.534 359.372ZM309.044 362.569C305.484 362.03 298.053 362.809 297.483 366.536L296.873 370.533L318.274 373.8L318.884 369.803C319.454 366.077 312.604 363.109 309.044 362.569ZM321.275 364.438C320.834 364.368 320.324 364.328 319.784 364.288C321.354 365.907 322.315 367.905 321.955 370.273L321.344 374.27L330.515 375.669L331.125 371.672C331.685 367.945 324.835 364.977 321.275 364.438Z" fill="white"/>
<path d="M350.756 374.47L348.106 374.06L350.066 361.271L345.956 362.01L346.296 359.772L352.866 358.433L353.206 358.483L350.756 374.47ZM367.707 370.193C367.357 372.481 366.657 374.15 365.617 375.179C364.587 376.208 363.196 376.588 361.446 376.318C359.726 376.058 358.516 375.289 357.806 374.03C357.116 372.761 356.926 371.012 357.246 368.784L357.666 366.027C358.016 363.738 358.706 362.09 359.736 361.071C360.776 360.062 362.166 359.682 363.927 359.952C365.667 360.221 366.887 360.971 367.567 362.22C368.257 363.469 368.447 365.207 368.127 367.435L367.707 370.193ZM365.507 366.816C365.737 365.317 365.697 364.198 365.397 363.439C365.097 362.679 364.497 362.23 363.606 362.09C362.736 361.96 362.046 362.19 361.536 362.789C361.026 363.379 360.656 364.378 360.416 365.777L359.866 369.384C359.636 370.873 359.676 372.012 359.986 372.801C360.286 373.59 360.886 374.06 361.776 374.19C362.626 374.32 363.316 374.08 363.826 373.47C364.337 372.851 364.717 371.832 364.957 370.393L365.507 366.816ZM380.447 372.142C380.097 374.43 379.397 376.098 378.357 377.127C377.327 378.157 375.937 378.536 374.187 378.266C372.467 378.007 371.257 377.237 370.547 375.978C369.857 374.709 369.667 372.961 369.987 370.733L370.407 367.975C370.757 365.687 371.447 364.038 372.477 363.019C373.517 362.01 374.907 361.63 376.667 361.9C378.407 362.17 379.627 362.919 380.307 364.168C380.997 365.417 381.187 367.156 380.867 369.384L380.447 372.142ZM378.247 368.764C378.477 367.266 378.437 366.146 378.137 365.387C377.837 364.628 377.237 364.178 376.347 364.038C375.477 363.908 374.787 364.138 374.277 364.738C373.767 365.327 373.397 366.326 373.157 367.725L372.607 371.332C372.377 372.821 372.417 373.96 372.727 374.749C373.027 375.539 373.627 376.008 374.517 376.138C375.367 376.268 376.057 376.028 376.567 375.419C377.077 374.799 377.457 373.78 377.697 372.341L378.247 368.764ZM393.188 374.09C392.838 376.378 392.138 378.047 391.098 379.076C390.068 380.105 388.678 380.485 386.928 380.215C385.207 379.955 383.997 379.186 383.287 377.927C382.597 376.658 382.407 374.909 382.727 372.681L383.147 369.923C383.497 367.635 384.187 365.987 385.217 364.967C386.258 363.958 387.648 363.579 389.408 363.848C391.148 364.118 392.368 364.868 393.048 366.117C393.738 367.365 393.928 369.104 393.608 371.332L393.188 374.09ZM390.988 370.713C391.218 369.214 391.178 368.095 390.878 367.336C390.578 366.576 389.978 366.127 389.088 365.987C388.218 365.857 387.528 366.087 387.018 366.686C386.508 367.276 386.138 368.275 385.897 369.674L385.347 373.281C385.117 374.769 385.157 375.908 385.457 376.698C385.757 377.487 386.358 377.957 387.248 378.087C388.098 378.216 388.788 377.977 389.298 377.367C389.808 376.748 390.188 375.729 390.428 374.29L390.988 370.713ZM405.938 376.038C405.588 378.326 404.888 379.995 403.848 381.024C402.818 382.053 401.428 382.433 399.678 382.163C397.958 381.903 396.748 381.134 396.038 379.875C395.348 378.606 395.158 376.858 395.478 374.629L395.898 371.872C396.248 369.584 396.938 367.935 397.968 366.916C399.008 365.907 400.398 365.527 402.158 365.797C403.898 366.067 405.118 366.816 405.798 368.065C406.488 369.314 406.678 371.052 406.358 373.281L405.938 376.038ZM403.728 372.651C403.958 371.152 403.918 370.033 403.618 369.274C403.318 368.515 402.718 368.065 401.828 367.925C400.958 367.795 400.268 368.025 399.758 368.624C399.248 369.214 398.878 370.213 398.638 371.612L398.088 375.219C397.858 376.708 397.898 377.847 398.198 378.636C398.498 379.425 399.098 379.895 399.988 380.025C400.838 380.155 401.528 379.915 402.038 379.306C402.548 378.686 402.928 377.667 403.168 376.228L403.728 372.651Z" fill="#BFD5FF"/>
<path d="M157.607 33.2325C157.857 33.0027 158.027 32.6829 158.047 32.3232L159.337 13.9884C159.347 13.7187 159.957 7.41388 156.537 3.62702C152.357 -0.999146 147.037 -1.20897 142.316 3.0475C139.556 5.53544 138.926 10.0517 138.796 12.4097C136.436 12.2998 131.886 12.4597 129.116 14.9576C124.396 19.2141 124.066 24.5197 128.236 29.1459C131.656 32.9327 137.996 32.9727 138.216 32.9627L156.647 33.5722C157.017 33.5922 157.357 33.4623 157.607 33.2325Z" fill="#FF0000"/>
<path d="M402.688 64.5765L439.2 78.365C442.24 79.5041 443.78 82.8913 442.63 85.9288L432.63 112.507C431.49 115.544 428.099 117.083 425.059 115.934L376.117 97.4692C374.837 96.9896 374.967 95.1311 376.307 94.8414C381.797 93.6524 386.427 91.0745 388.858 84.6199L395.118 67.9936C396.248 64.9662 399.648 63.4374 402.688 64.5765Z" fill="white"/>
<path d="M434.37 89.236C434.14 89.236 433.9 89.1961 433.67 89.1062L399.738 76.3567C398.708 75.967 398.178 74.818 398.568 73.7789C398.958 72.7397 400.108 72.2301 401.148 72.6098L435.08 85.3593C436.11 85.7489 436.64 86.898 436.25 87.9371C435.94 88.7465 435.18 89.236 434.37 89.236Z" fill="#BFD5FF"/>
<path d="M430.829 98.6383C430.599 98.6383 430.359 98.5983 430.129 98.5084L396.198 85.7589C395.168 85.3693 394.638 84.2202 395.028 83.1811C395.418 82.1519 396.568 81.6324 397.608 82.0121L431.539 94.7615C432.57 95.1512 433.1 96.3002 432.71 97.3393C432.4 98.1387 431.639 98.6383 430.829 98.6383Z" fill="#BFD5FF"/>
<path d="M419.309 105.023C419.079 105.023 418.839 104.983 418.609 104.893L392.668 95.1512C391.638 94.7615 391.108 93.6124 391.498 92.5733C391.888 91.5442 393.038 91.0146 394.078 91.4043L420.019 101.146C421.049 101.536 421.579 102.685 421.189 103.724C420.879 104.533 420.119 105.023 419.309 105.023Z" fill="#BFD5FF"/>
<path d="M408.388 247.435C407.488 247.435 406.678 246.825 406.448 245.916L384.607 157.579C384.347 156.51 384.997 155.421 386.067 155.161C387.138 154.892 388.228 155.551 388.488 156.62L410.329 244.957C410.599 246.026 409.939 247.115 408.868 247.375C408.708 247.415 408.548 247.435 408.388 247.435Z" fill="white"/>
<path d="M190.989 377.707C190.089 377.707 189.279 377.097 189.049 376.188C188.789 375.119 189.439 374.03 190.509 373.77L247.881 359.612C248.951 359.342 250.041 360.002 250.301 361.071C250.561 362.14 249.911 363.229 248.841 363.489L191.469 377.647C191.309 377.687 191.149 377.707 190.989 377.707Z" fill="white"/>
<path d="M157.427 386C156.527 386 155.717 385.391 155.487 384.481C155.227 383.412 155.877 382.323 156.947 382.063L175.488 377.487C176.558 377.217 177.648 377.877 177.908 378.946C178.168 380.015 177.518 381.104 176.448 381.364L157.907 385.94C157.747 385.98 157.587 386 157.427 386Z" fill="white"/>
<path d="M48.4422 66.0253C47.7022 66.0253 46.9921 65.6156 46.6421 64.9062C46.1521 63.917 46.5621 62.718 47.5522 62.2284C50.8623 60.6098 54.3725 59.3308 57.9926 58.4416L90.7741 50.3483C91.8442 50.0785 92.9342 50.738 93.1942 51.8071C93.4642 52.8762 92.8042 53.9653 91.7342 54.2251L58.9527 62.3184C55.6125 63.1477 52.3724 64.3167 49.3222 65.8155C49.0322 65.9653 48.7322 66.0253 48.4422 66.0253Z" fill="white"/>
<path d="M29.4613 152.404C28.5613 152.404 27.7512 151.794 27.5212 150.885L20.1509 121.07C16.2007 105.083 19.9309 88.5966 30.3914 75.8372C31.0914 74.9879 32.3515 74.858 33.2015 75.5574C34.0515 76.2568 34.1815 77.5158 33.4815 78.3651C23.8311 90.1353 20.3809 105.353 24.0311 120.1L31.4014 149.916C31.6714 150.985 31.0114 152.074 29.9413 152.334C29.7813 152.384 29.6213 152.404 29.4613 152.404Z" fill="white"/>
<path d="M41.3119 286.263C42.4619 286.882 43.332 287.901 43.742 289.08C44.152 290.269 44.062 291.518 43.492 292.577C42.6919 294.046 41.1319 294.866 39.4618 294.836L38.0917 297.354L40.2618 298.523C44.282 300.701 47.3422 304.258 48.7722 308.404C50.2023 312.551 49.8823 316.947 47.8822 320.634L50.0523 321.803C50.6223 322.113 51.0623 322.623 51.2723 323.212C51.4723 323.802 51.4323 324.431 51.1423 324.961L47.9122 330.916C47.6222 331.445 47.1221 331.825 46.5121 331.975C45.9021 332.125 45.2421 332.035 44.662 331.725L42.4919 330.556L41.4119 332.544C40.8419 333.593 39.8318 334.363 38.6218 334.663C37.4017 334.962 36.0716 334.782 34.9316 334.163L4.61022 317.737C3.46017 317.117 2.59013 316.098 2.18011 314.919C1.77009 313.73 1.8601 312.481 2.43012 311.422L3.51017 309.434L1.34007 308.264C0.770048 307.955 0.330029 307.445 0.120019 306.856C-0.07999 306.266 -0.0399882 305.637 0.250025 305.107L3.48017 299.152C3.77018 298.622 4.27021 298.243 4.88023 298.093C5.49026 297.943 6.15029 298.033 6.73032 298.343L8.90042 299.512C10.9005 295.825 14.4107 293.157 18.6709 292.098C22.931 291.039 27.5813 291.658 31.6014 293.836L33.7715 295.005L35.1416 292.488C34.2116 291.109 34.0416 289.35 34.8416 287.881C35.4116 286.832 36.4217 286.063 37.6317 285.763C38.8418 285.463 40.1618 285.643 41.3119 286.263ZM19.7209 302.809C18.2808 302.03 16.6208 301.81 15.1007 302.19C13.5806 302.569 12.3206 303.518 11.6105 304.837C10.9005 306.156 10.7805 307.725 11.2905 309.204C11.8005 310.682 12.8906 311.951 14.3307 312.731C15.7707 313.51 17.4308 313.73 18.9509 313.35C20.4709 312.971 21.731 312.021 22.441 310.702C23.1511 309.384 23.2711 307.815 22.761 306.336C22.251 304.857 21.161 303.588 19.7209 302.809ZM39.2218 313.38C37.7817 312.601 36.1216 312.381 34.6016 312.761C33.0815 313.14 31.8215 314.09 31.1114 315.409C30.4014 316.727 30.2814 318.296 30.7914 319.775C31.3014 321.254 32.3915 322.523 33.8315 323.302C35.2716 324.081 36.9317 324.301 38.4518 323.922C39.9718 323.542 41.2319 322.593 41.9419 321.274C42.6519 319.955 42.7719 318.386 42.2619 316.907C41.7519 315.419 40.6519 314.15 39.2218 313.38Z" fill="white"/>
</g>
<defs>
<clipPath id="clip0">
<rect width="443" height="386" fill="white"/>
</clipPath>
</defs>
</svg>
