<svg width="92" height="92" viewBox="0 0 92 92" fill="none" xmlns="http://www.w3.org/2000/svg">
<path d="M53.5 -15C23.9412 -15 0 8.94118 0 38.5C0 68.0588 23.9412 92 53.5 92C83.0588 92 107 68.0588 107 38.5C107 8.94118 83.0588 -15 53.5 -15ZM57.5882 66.9706H47.8529V57.2353H57.5882V66.9706ZM63.1471 37.9118C59.6765 42.2353 57.4412 45.4412 57.4412 51.0882H47.8529C47.8529 39 55.8235 35.6471 58.4412 28.7647C62.5588 17.9412 48.0294 14.6765 47.8824 26.2059V26.2353H38V26.2059C38.3824 16.4706 43.5294 10.0294 53.4412 10.0294C67.1765 10.0294 75.2353 23.1765 63.1471 37.9118Z" fill="#C40B9B"/>
</svg>
