<svg viewBox="0 0 145 139" fill="none" xmlns="http://www.w3.org/2000/svg">
<path d="M116.551 1.81254C119.796 3.56332 122.25 6.44366 123.407 9.77579C124.563 13.1362 124.309 16.666 122.701 19.6592C120.444 23.8103 116.044 26.1258 111.332 26.0411L107.467 33.1572L113.589 36.461C124.93 42.617 133.563 52.6699 137.597 64.3889C141.631 76.1078 140.728 88.5327 135.086 98.9526L141.208 102.257C142.816 103.132 144.057 104.572 144.649 106.238C145.214 107.904 145.101 109.683 144.283 111.18L135.171 128.01C134.352 129.507 132.942 130.58 131.221 131.003C129.5 131.427 127.638 131.173 126.002 130.297L119.88 126.993L116.833 132.613C115.225 135.578 112.376 137.752 108.963 138.599C105.521 139.447 101.769 138.938 98.5528 137.187L13.0173 90.7635C9.77306 89.0127 7.31871 86.1324 6.16207 82.8003C5.00542 79.4399 5.25932 75.9101 6.86734 72.9168L9.91412 67.2974L3.79235 63.9935C2.18433 63.1181 0.943051 61.6779 0.350622 60.0118C-0.213596 58.3458 -0.100753 56.5668 0.717363 55.0701L9.82948 38.2401C10.6476 36.7434 12.0581 35.6704 13.779 35.2468C15.4999 34.8232 17.3618 35.0774 18.998 35.9528L25.1198 39.2567C30.762 28.8367 40.664 21.297 52.6818 18.3038C64.6997 15.3105 77.8178 17.0612 89.1585 23.2172L95.2803 26.5211L99.1452 19.4051C96.5216 15.5082 96.042 10.5382 98.2989 6.38715C99.9069 3.42211 102.756 1.24777 106.17 0.400619C109.583 -0.446533 113.307 0.0617579 116.551 1.81254ZM55.644 48.5753C51.5816 46.3727 46.8986 45.7515 42.6106 46.8246C38.3225 47.8976 34.7679 50.5803 32.7649 54.3077C30.762 58.0352 30.4234 62.4686 31.8622 66.6479C33.301 70.8272 36.3759 74.4135 40.4383 76.616C44.5007 78.8186 49.1837 79.4399 53.4718 78.3668C57.7598 77.2938 61.3144 74.6111 63.3174 70.8837C65.3203 67.1562 65.6589 62.7228 64.2201 58.5435C62.7813 54.3642 59.7064 50.7779 55.644 48.5753ZM110.655 78.4516C106.593 76.249 101.91 75.6277 97.6218 76.7008C93.3338 77.7738 89.7792 80.4565 87.7762 84.184C85.7732 87.9115 85.4347 92.3449 86.8735 96.5242C88.3122 100.703 91.3872 104.29 95.4496 106.492C99.512 108.695 104.195 109.316 108.483 108.243C112.771 107.17 116.326 104.487 118.329 100.76C120.332 97.0325 120.67 92.599 119.231 88.4198C117.793 84.2122 114.689 80.626 110.655 78.4516Z" fill="#ACD1FF"/>
</svg>