<svg width="18" height="16" viewBox="0 0 18 16" fill="none" xmlns="http://www.w3.org/2000/svg">
<path d="M9 0.5C9.43399 0.5 9.85021 0.658035 10.1571 0.93934C10.464 1.22064 10.6364 1.60218 10.6364 2C10.6364 2.555 10.3091 3.0425 9.81818 3.2975V4.25H10.6364C12.1553 4.25 13.6121 4.80312 14.6862 5.78769C15.7602 6.77226 16.3636 8.10761 16.3636 9.5H17.1818C17.3988 9.5 17.6069 9.57902 17.7604 9.71967C17.9138 9.86032 18 10.0511 18 10.25V12.5C18 12.6989 17.9138 12.8897 17.7604 13.0303C17.6069 13.171 17.3988 13.25 17.1818 13.25H16.3636V14C16.3636 14.3978 16.1912 14.7794 15.8844 15.0607C15.5775 15.342 15.1613 15.5 14.7273 15.5H3.27273C2.83874 15.5 2.42252 15.342 2.11564 15.0607C1.80877 14.7794 1.63636 14.3978 1.63636 14V13.25H0.818182C0.601187 13.25 0.393079 13.171 0.23964 13.0303C0.086201 12.8897 0 12.6989 0 12.5V10.25C0 10.0511 0.086201 9.86032 0.23964 9.71967C0.393079 9.57902 0.601187 9.5 0.818182 9.5H1.63636C1.63636 8.10761 2.23977 6.77226 3.31384 5.78769C4.38791 4.80312 5.84467 4.25 7.36364 4.25H8.18182V3.2975C7.69091 3.0425 7.36364 2.555 7.36364 2C7.36364 1.60218 7.53604 1.22064 7.84292 0.93934C8.14979 0.658035 8.56601 0.5 9 0.5ZM5.31818 8.75C4.77569 8.75 4.25542 8.94754 3.87183 9.29918C3.48823 9.65081 3.27273 10.1277 3.27273 10.625C3.27273 11.1223 3.48823 11.5992 3.87183 11.9508C4.25542 12.3025 4.77569 12.5 5.31818 12.5C5.86067 12.5 6.38094 12.3025 6.76454 11.9508C7.14813 11.5992 7.36364 11.1223 7.36364 10.625C7.36364 10.1277 7.14813 9.65081 6.76454 9.29918C6.38094 8.94754 5.86067 8.75 5.31818 8.75ZM12.6818 8.75C12.1393 8.75 11.6191 8.94754 11.2355 9.29918C10.8519 9.65081 10.6364 10.1277 10.6364 10.625C10.6364 11.1223 10.8519 11.5992 11.2355 11.9508C11.6191 12.3025 12.1393 12.5 12.6818 12.5C13.2243 12.5 13.7446 12.3025 14.1282 11.9508C14.5118 11.5992 14.7273 11.1223 14.7273 10.625C14.7273 10.1277 14.5118 9.65081 14.1282 9.29918C13.7446 8.94754 13.2243 8.75 12.6818 8.75Z" fill="#FA955D"/>
</svg>
